name rise43.5482peak65.4966fall89.1036.mot
datacolumns 19
datarows 11
range 7.52830200000000 7.54496400000000
endheader
time	ground_force1_vx	ground_force1_vy	ground_force1_vz	ground_force1_px	ground_force1_py	ground_force1_pz	ground_force2_vx	ground_force2_vy	ground_force2_vz	ground_force2_px	ground_force2_py	ground_force2_pz	ground_torque1_x	ground_torque1_y	ground_torque1_z	ground_torque2_x	ground_torque2_y	ground_torque2_z	
7.52830200000000	-8.93565500000000	46.24415500000000	-10.86011500000000	0.26860300000000	0.00000000000000	0.08515500000000	-59.68285300000000	783.99847599999998	-48.98412100000000	0.05545400000000	0.00000000000000	-0.08916100000000	0.00000000000000	-5.56089700000000	0.00000000000000	0.00000000000000	-14.61251000000000	0.00000000000000	
7.52997100000000	-9.52862300000000	53.05800100000000	-11.89379900000000	0.27292100000000	0.00000000000000	0.08604900000000	-60.65001100000000	781.19669099999999	-48.57710300000000	0.05445900000000	0.00000000000000	-0.08897200000000	0.00000000000000	-6.17230400000000	0.00000000000000	0.00000000000000	-14.64821400000000	0.00000000000000	
7.53163500000000	-9.93542900000000	59.85726800000000	-12.77820400000000	0.27694400000000	0.00000000000000	0.08686900000000	-61.62633500000000	778.27380200000005	-48.16042600000000	0.05346700000000	0.00000000000000	-0.08878100000000	0.00000000000000	-6.72133900000000	0.00000000000000	0.00000000000000	-14.68677000000000	0.00000000000000	
7.53330500000000	-10.14311400000000	66.57660300000001	-13.49676000000000	0.28071000000000	0.00000000000000	0.08762300000000	-62.61013400000000	775.22563100000002	-47.73395600000000	0.05247900000000	0.00000000000000	-0.08858900000000	0.00000000000000	-7.19779300000000	0.00000000000000	0.00000000000000	-14.72792800000000	0.00000000000000	
7.53496500000000	-10.14788600000000	73.17484600000000	-14.04201100000000	0.28424800000000	0.00000000000000	0.08832200000000	-63.59961700000000	772.04795999999999	-47.29755400000000	0.05149500000000	0.00000000000000	-0.08839600000000	0.00000000000000	-7.59598300000000	0.00000000000000	0.00000000000000	-14.77141900000000	0.00000000000000	
7.53663500000000	-9.95422800000000	79.63469499999999	-14.41491600000000	0.28758200000000	0.00000000000000	0.08897300000000	-64.59290100000000	768.73655199999996	-46.85108100000000	0.05051800000000	0.00000000000000	-0.08820200000000	0.00000000000000	-7.91454900000000	0.00000000000000	0.00000000000000	-14.81695200000000	0.00000000000000	
7.53829900000000	-9.57348300000000	85.96045400000000	-14.62358000000000	0.29073200000000	0.00000000000000	0.08958000000000	-65.58800500000000	765.28715799999998	-46.39439700000000	0.04954600000000	0.00000000000000	-0.08800700000000	0.00000000000000	-8.15591600000000	0.00000000000000	0.00000000000000	-14.86422300000000	0.00000000000000	
7.53996300000000	-9.02211500000000	92.17440400000000	-14.68161800000000	0.29371400000000	0.00000000000000	0.09015100000000	-66.58286600000000	761.69554500000004	-45.92736500000000	0.04858200000000	0.00000000000000	-0.08781100000000	0.00000000000000	-8.32555200000000	0.00000000000000	0.00000000000000	-14.91290700000000	0.00000000000000	
7.54163700000000	-8.31985600000000	98.31231699999999	-14.60635000000000	0.29654300000000	0.00000000000000	0.09068700000000	-67.57533100000001	757.95750199999998	-45.44984900000000	0.04762500000000	0.00000000000000	-0.08761300000000	0.00000000000000	-8.43108800000000	0.00000000000000	0.00000000000000	-14.96266400000000	0.00000000000000	
7.54330400000000	-7.48791100000000	104.41864400000000	-14.41700800000000	0.29923100000000	0.00000000000000	0.09119500000000	-68.56317100000000	754.06886899999995	-44.96172300000000	0.04667700000000	0.00000000000000	-0.08741400000000	0.00000000000000	-8.48141700000000	0.00000000000000	0.00000000000000	-15.01313800000000	0.00000000000000	
7.54496400000000	-6.54734200000000	110.54182900000001	-14.13309500000000	0.30178700000000	0.00000000000000	0.09167500000000	-69.54407800000000	750.02554499999997	-44.46286700000000	0.04573800000000	0.00000000000000	-0.08721400000000	0.00000000000000	-8.48584600000000	0.00000000000000	0.00000000000000	-15.06395800000000	0.00000000000000	
